<svg width="100" height="80" viewBox="0 0 100 80" fill="none" xmlns="http://www.w3.org/2000/svg">
<path fill-rule="evenodd" clip-rule="evenodd" d="M50.1546 0C53.9714 0 57.0719 3.72458 57.0719 8.33129C57.0719 10.3112 56.4941 12.1343 55.5339 13.5653C59.7168 14.1926 63.8428 15.5648 67.7327 17.6721C81.9824 25.3859 93.1071 42.9503 93.1234 70.3357C93.1234 71.3551 92.4316 72.1882 91.5853 72.1882V72.198H8.72396C7.86947 72.198 7.17773 71.3649 7.17773 70.3357C7.17773 70.2769 7.17773 70.2181 7.18587 70.1593C7.24284 42.8718 18.3594 25.3663 32.5684 17.6721C36.4583 15.5648 40.5843 14.1926 44.7673 13.5653C43.807 12.1343 43.2292 10.3112 43.2292 8.33129C43.2373 3.72458 46.3298 0 50.1546 0ZM1.54622 80C0.691732 80 0 79.1669 0 78.1377C0 77.1086 0.691732 76.2754 1.54622 76.2754H98.4619C99.3164 76.2754 100.008 77.1086 100.008 78.1377C100.008 79.1669 99.3164 80 98.4619 80H1.54622ZM10.2783 68.4734H90.0228C89.5264 43.8422 79.3783 28.0421 66.4795 21.0537C61.3363 18.27 55.7454 16.8782 50.1546 16.8782C44.5557 16.8782 38.973 18.27 33.8298 21.0537C20.9229 28.0421 10.7747 43.8422 10.2783 68.4734ZM19.8079 56.5842C19.5557 57.5643 18.693 58.1132 17.8792 57.8094C17.0654 57.5055 16.6097 56.4666 16.862 55.4864C18.4082 49.5369 20.8333 44.6263 24.0641 40.6567C27.2868 36.7067 31.2826 33.7172 35.9701 31.5903C36.7676 31.2276 37.6546 31.7177 37.9557 32.6685C38.2568 33.629 37.8499 34.6974 37.0606 35.06C32.7881 37.0007 29.1585 39.6962 26.2614 43.2541C23.3805 46.7925 21.1995 51.2031 19.8079 56.5842Z" fill="#E4C590"/>
</svg>
