<svg width="203" height="60" viewBox="0 0 203 60" fill="none" xmlns="http://www.w3.org/2000/svg">
<path d="M1.08057 27.6695C1.49638 22.3125 5.46437 11.7399 18.0099 12.305C30.5554 12.8701 34.4046 24.1963 34.761 29.7887H1.08057C0.842963 30.7895 1.12826 33.013 1.97158 33.3208C2.87966 33.6523 24.3658 33.4974 34.761 33.3208C34.5999 34.7336 33.5135 36.1247 33.5135 36.1247L2.86257 36.6763C3.05787 37.1844 3.18103 37.7101 3.41427 38.0674C3.77068 38.6132 3.94888 39.127 4.8228 39.6785H31.3751C31.3751 39.6785 30.8616 40.9333 30.323 41.5995C29.698 42.3726 28.3456 43.2106 28.3456 43.2106H8.20867C10.4659 44.5646 16.2278 46.9546 21.2175 45.6831" stroke="#E4C590" stroke-width="1.5"/>
<path d="M53.3475 39.28C53.3475 39.42 53.2375 39.62 53.0175 39.88C52.7975 40.12 52.6375 40.29 52.5375 40.39C52.3575 40.57 52.1775 40.75 51.9975 40.93C51.8175 41.11 51.6175 41.28 51.3975 41.44C50.7775 41.88 50.0375 42.26 49.1775 42.58C48.3175 42.88 47.5075 43.03 46.7475 43.03C45.2275 43.03 43.8875 42.7 42.7275 42.04C41.5875 41.36 40.6875 40.44 40.0275 39.28C39.3875 38.1 39.0675 36.76 39.0675 35.26C39.0675 33.78 39.3675 32.39 39.9675 31.09C40.5675 29.79 41.5175 28.74 42.8175 27.94C43.3775 27.6 43.9975 27.33 44.6775 27.13C45.3775 26.93 46.0475 26.83 46.6875 26.83C47.1875 26.83 47.6675 26.89 48.1275 27.01C48.6075 27.13 49.0675 27.29 49.5075 27.49C49.7675 27.61 50.0175 27.73 50.2575 27.85C50.4975 27.97 50.7575 28.03 51.0375 28.03C51.2775 28.03 51.4675 27.96 51.6075 27.82C51.7675 27.66 51.8875 27.58 51.9675 27.58C52.0275 27.58 52.0575 27.62 52.0575 27.7C52.0975 27.94 52.1075 28.18 52.0875 28.42C52.0875 28.66 52.0975 28.89 52.1175 29.11C52.1375 29.55 52.1575 29.99 52.1775 30.43C52.1975 30.87 52.2175 31.31 52.2375 31.75V31.84C52.2575 32.06 52.2375 32.23 52.1775 32.35C52.1175 32.47 51.9575 32.53 51.6975 32.53C51.5575 32.53 51.4575 32.45 51.3975 32.29C51.3575 32.13 51.3175 31.99 51.2775 31.87C51.1375 31.29 50.9275 30.67 50.6475 30.01C50.3675 29.35 49.9875 28.82 49.5075 28.42C49.2075 28.14 48.8275 27.91 48.3675 27.73C47.9275 27.55 47.5075 27.46 47.1075 27.46C46.1475 27.46 45.3275 27.71 44.6475 28.21C43.9875 28.69 43.4575 29.32 43.0575 30.1C42.6575 30.86 42.3575 31.68 42.1575 32.56C41.9775 33.44 41.8875 34.27 41.8875 35.05C41.8875 35.83 41.9775 36.63 42.1575 37.45C42.3375 38.25 42.6175 39 42.9975 39.7C43.3975 40.4 43.9175 40.96 44.5575 41.38C45.2175 41.8 46.0075 42.01 46.9275 42.01C48.2075 42.01 49.2775 41.78 50.1375 41.32C50.9975 40.84 51.8275 40.11 52.6275 39.13C52.7075 38.99 52.8175 38.92 52.9575 38.92C53.2175 38.92 53.3475 39.04 53.3475 39.28ZM66.0387 32.47C66.0187 31.65 65.9487 30.87 65.8287 30.13C65.7087 29.37 65.4187 28.75 64.9587 28.27C64.4987 27.77 63.7487 27.52 62.7087 27.52C61.7687 27.52 60.9987 27.78 60.3987 28.3C59.8187 28.8 59.3687 29.44 59.0487 30.22C58.7287 30.98 58.4887 31.76 58.3287 32.56C58.8287 32.58 59.3187 32.6 59.7987 32.62C60.2787 32.62 60.7587 32.62 61.2387 32.62C62.0387 32.62 62.8387 32.61 63.6387 32.59C64.4387 32.55 65.2387 32.51 66.0387 32.47ZM69.4887 39.34C69.4887 39.44 69.4687 39.5 69.4287 39.52C69.3687 39.72 69.2187 39.96 68.9787 40.24C68.7587 40.52 68.5087 40.79 68.2287 41.05C67.9487 41.29 67.7187 41.47 67.5387 41.59C66.8787 42.05 66.1287 42.42 65.2887 42.7C64.4687 42.98 63.6487 43.12 62.8287 43.12C62.1487 43.12 61.3887 43.01 60.5487 42.79C59.7287 42.57 59.0287 42.27 58.4487 41.89C57.3287 41.15 56.5087 40.18 55.9887 38.98C55.4687 37.78 55.2087 36.53 55.2087 35.23C55.2087 33.75 55.4987 32.38 56.0787 31.12C56.6587 29.86 57.5887 28.84 58.8687 28.06C59.4487 27.72 60.0987 27.44 60.8187 27.22C61.5387 26.98 62.2287 26.86 62.8887 26.86C64.0687 26.86 65.1087 27.1 66.0087 27.58C66.9087 28.06 67.6087 28.74 68.1087 29.62C68.6287 30.48 68.8887 31.51 68.8887 32.71C68.8887 33.05 68.8087 33.27 68.6487 33.37C68.5087 33.47 68.2887 33.52 67.9887 33.52C67.5887 33.52 67.1887 33.51 66.7887 33.49C66.3887 33.47 65.9887 33.45 65.5887 33.43C65.0287 33.39 64.4687 33.37 63.9087 33.37C63.3687 33.37 62.8187 33.37 62.2587 33.37C61.5787 33.37 60.8987 33.37 60.2187 33.37C59.5387 33.37 58.8587 33.39 58.1787 33.43C58.1587 33.75 58.1387 34.06 58.1187 34.36C58.0987 34.66 58.0887 34.97 58.0887 35.29C58.0887 36.03 58.1787 36.8 58.3587 37.6C58.5387 38.38 58.8287 39.11 59.2287 39.79C59.6287 40.45 60.1387 40.99 60.7587 41.41C61.3787 41.81 62.1287 42.01 63.0087 42.01C63.9087 42.01 64.7687 41.87 65.5887 41.59C66.4087 41.31 67.1587 40.86 67.8387 40.24C68.0187 40.06 68.1787 39.87 68.3187 39.67C68.4787 39.45 68.6487 39.26 68.8287 39.1C68.9287 39 69.0387 38.95 69.1587 38.95C69.2587 38.95 69.3387 38.99 69.3987 39.07C69.4587 39.15 69.4887 39.24 69.4887 39.34ZM81.0064 39.49C80.9264 38.59 80.8764 37.69 80.8564 36.79C80.8564 35.87 80.8464 34.95 80.8264 34.03H80.4064C79.7864 34.03 79.0964 34.13 78.3364 34.33C77.5964 34.51 76.8864 34.79 76.2064 35.17C75.5264 35.55 74.9664 36.03 74.5264 36.61C74.1064 37.17 73.8964 37.82 73.8964 38.56C73.8964 39.52 74.1664 40.25 74.7064 40.75C75.2464 41.23 75.9764 41.47 76.8964 41.47C77.3364 41.47 77.8164 41.37 78.3364 41.17C78.8564 40.95 79.3564 40.69 79.8364 40.39C80.3164 40.09 80.7064 39.79 81.0064 39.49ZM86.2564 41.41C86.2564 41.49 86.2464 41.55 86.2264 41.59C86.0264 42.03 85.6864 42.37 85.2064 42.61C84.7464 42.83 84.2864 42.94 83.8264 42.94C82.9864 42.94 82.3764 42.7 81.9964 42.22C81.6364 41.72 81.3464 41.11 81.1264 40.39C80.3664 41.09 79.5264 41.68 78.6064 42.16C77.6864 42.62 76.6964 42.85 75.6364 42.85C74.8964 42.85 74.1964 42.71 73.5364 42.43C72.8964 42.13 72.3764 41.7 71.9764 41.14C71.5764 40.58 71.3764 39.9 71.3764 39.1C71.3764 38.26 71.5864 37.54 72.0064 36.94C72.4464 36.32 72.9964 35.8 73.6564 35.38C74.3364 34.94 75.0564 34.59 75.8164 34.33C76.5964 34.05 77.3264 33.84 78.0064 33.7C78.4664 33.6 78.9364 33.51 79.4164 33.43C79.8964 33.35 80.3664 33.27 80.8264 33.19C80.8264 32.63 80.7964 31.98 80.7364 31.24C80.6964 30.5 80.5464 29.89 80.2864 29.41C80.0264 28.95 79.6764 28.54 79.2364 28.18C78.7964 27.82 78.3064 27.64 77.7664 27.64C76.8464 27.64 76.1264 27.88 75.6064 28.36C75.0864 28.84 74.7164 29.52 74.4964 30.4C74.4764 30.5 74.4564 30.61 74.4364 30.73C74.4364 30.83 74.4264 30.93 74.4064 31.03C74.3864 31.15 74.3064 31.26 74.1664 31.36C74.0464 31.44 73.9164 31.48 73.7764 31.48C73.3964 31.48 73.0464 31.39 72.7264 31.21C72.4264 31.03 72.2764 30.73 72.2764 30.31C72.2764 30.07 72.3164 29.86 72.3964 29.68C72.6564 29.06 73.0764 28.55 73.6564 28.15C74.2364 27.73 74.8764 27.41 75.5764 27.19C76.2964 26.97 76.9664 26.86 77.5864 26.86C78.6664 26.86 79.6464 27.06 80.5264 27.46C81.4064 27.86 82.1064 28.45 82.6264 29.23C83.1664 29.99 83.4364 30.95 83.4364 32.11C83.4364 33.41 83.4264 34.72 83.4064 36.04C83.4064 37.36 83.4464 38.68 83.5264 40C83.5464 40.44 83.6364 40.83 83.7964 41.17C83.9564 41.49 84.2864 41.65 84.7864 41.65C85.0464 41.65 85.3164 41.59 85.5964 41.47C85.8964 41.33 86.0864 41.26 86.1664 41.26C86.2264 41.26 86.2564 41.31 86.2564 41.41ZM104.975 42.55C104.975 42.81 104.825 42.94 104.525 42.94C104.085 42.94 103.635 42.93 103.175 42.91C102.715 42.87 102.255 42.85 101.795 42.85C101.115 42.85 100.415 42.87 99.6947 42.91C98.9947 42.93 98.2947 42.94 97.5947 42.94C97.5147 42.94 97.4647 42.88 97.4447 42.76C97.4247 42.62 97.4147 42.51 97.4147 42.43C97.4147 42.27 97.5147 42.19 97.7147 42.19C97.9147 42.19 98.0747 42.19 98.1947 42.19C98.2947 42.19 98.3947 42.2 98.4947 42.22C98.6147 42.22 98.7247 42.22 98.8247 42.22C99.4047 42.22 99.7247 41.93 99.7847 41.35C99.8447 40.17 99.8647 38.98 99.8447 37.78C99.8447 36.58 99.8447 35.39 99.8447 34.21C99.8447 33.99 99.8447 33.77 99.8447 33.55C99.8447 33.31 99.8447 33.08 99.8447 32.86C99.8247 32.4 99.7947 31.84 99.7547 31.18C99.7147 30.5 99.6247 29.95 99.4847 29.53C99.1647 28.49 98.4647 27.97 97.3847 27.97C96.4047 27.97 95.5047 28.22 94.6847 28.72C93.8647 29.22 93.1547 29.85 92.5547 30.61C92.5347 32.07 92.5247 33.52 92.5247 34.96C92.5247 36.4 92.5247 37.84 92.5247 39.28V41.35C92.5247 41.65 92.6547 41.87 92.9147 42.01C93.1747 42.15 93.4347 42.22 93.6947 42.22C93.8547 42.22 94.0047 42.21 94.1447 42.19C94.3047 42.15 94.4547 42.13 94.5947 42.13C94.6747 42.13 94.7247 42.18 94.7447 42.28C94.7647 42.38 94.7747 42.46 94.7747 42.52C94.7747 42.6 94.7447 42.69 94.6847 42.79C94.6447 42.89 94.5647 42.94 94.4447 42.94C94.0047 42.94 93.5647 42.93 93.1247 42.91C92.7047 42.87 92.2747 42.85 91.8347 42.85C91.1547 42.85 90.4747 42.87 89.7947 42.91C89.1147 42.93 88.4247 42.94 87.7247 42.94C87.6247 42.94 87.5647 42.88 87.5447 42.76C87.5447 42.62 87.5447 42.51 87.5447 42.43C87.5447 42.27 87.6347 42.19 87.8147 42.19C87.9947 42.19 88.1347 42.19 88.2347 42.19C88.3347 42.19 88.4347 42.2 88.5347 42.22C88.6347 42.22 88.7347 42.22 88.8347 42.22C89.4147 42.22 89.7347 41.93 89.7947 41.35C89.8147 41.07 89.8247 40.79 89.8247 40.51C89.8247 40.23 89.8247 39.95 89.8247 39.67C89.8247 37.95 89.8247 36.23 89.8247 34.51C89.8247 32.77 89.8147 31.04 89.7947 29.32C89.7947 29.04 89.7347 28.76 89.6147 28.48C89.4947 28.2 89.2647 28.06 88.9247 28.06C88.6647 28.06 88.4147 28.1 88.1747 28.18C87.9347 28.26 87.6847 28.3 87.4247 28.3C87.2847 28.3 87.2147 28.2 87.2147 28C87.2147 27.96 87.2147 27.92 87.2147 27.88C87.2347 27.82 87.2547 27.78 87.2747 27.76C87.2947 27.74 87.3247 27.73 87.3647 27.73C87.4047 27.71 87.4347 27.69 87.4547 27.67C87.8147 27.57 88.1847 27.5 88.5647 27.46C88.9647 27.42 89.3447 27.36 89.7047 27.28C90.0447 27.22 90.3747 27.14 90.6947 27.04C91.0147 26.92 91.3347 26.86 91.6547 26.86C91.7947 26.86 91.9047 26.93 91.9847 27.07C92.0847 27.25 92.1647 27.51 92.2247 27.85C92.2847 28.17 92.3247 28.5 92.3447 28.84C92.3847 29.18 92.4047 29.46 92.4047 29.68C92.8447 29.24 93.3647 28.81 93.9647 28.39C94.5847 27.95 95.2247 27.59 95.8847 27.31C96.5647 27.01 97.2247 26.86 97.8647 26.86C99.7047 26.86 100.945 27.27 101.585 28.09C102.245 28.89 102.575 30.16 102.575 31.9C102.575 33.46 102.565 35.02 102.545 36.58C102.545 38.14 102.545 39.7 102.545 41.26C102.545 41.64 102.655 41.9 102.875 42.04C103.115 42.16 103.395 42.22 103.715 42.22C103.875 42.22 104.035 42.21 104.195 42.19C104.355 42.15 104.505 42.13 104.645 42.13C104.765 42.13 104.845 42.18 104.885 42.28C104.945 42.36 104.975 42.45 104.975 42.55ZM128.1 26.44C128.1 24.84 127.6 23.68 126.6 22.96C125.62 22.22 124.39 21.85 122.91 21.85C122.51 21.85 122.1 21.86 121.68 21.88C121.26 21.88 120.84 21.88 120.42 21.88C120.22 21.88 120.02 21.94 119.82 22.06C119.62 22.18 119.52 22.35 119.52 22.57V31.09C119.96 31.41 120.5 31.6 121.14 31.66C121.78 31.72 122.35 31.75 122.85 31.75C124.57 31.75 125.87 31.29 126.75 30.37C127.65 29.45 128.1 28.14 128.1 26.44ZM131.4 26.35C131.4 27.65 131.15 28.71 130.65 29.53C130.17 30.35 129.52 30.99 128.7 31.45C127.88 31.91 126.95 32.23 125.91 32.41C124.89 32.57 123.84 32.65 122.76 32.65C122.22 32.65 121.68 32.62 121.14 32.56C120.6 32.5 120.07 32.43 119.55 32.35V41.32C119.55 41.62 119.68 41.82 119.94 41.92C120.2 42.02 120.49 42.07 120.81 42.07C121.13 42.07 121.39 42.07 121.59 42.07C121.71 42.07 121.83 42.07 121.95 42.07C122.09 42.05 122.22 42.04 122.34 42.04C122.52 42.04 122.61 42.12 122.61 42.28C122.61 42.54 122.59 42.72 122.55 42.82C122.51 42.9 122.35 42.94 122.07 42.94C121.39 42.94 120.72 42.92 120.06 42.88C119.4 42.84 118.74 42.82 118.08 42.82C117.4 42.82 116.71 42.85 116.01 42.91C115.33 42.95 114.65 42.97 113.97 42.97C113.77 42.97 113.67 42.84 113.67 42.58C113.67 42.46 113.69 42.35 113.73 42.25C113.77 42.15 113.87 42.1 114.03 42.1C114.27 42.1 114.51 42.11 114.75 42.13C114.99 42.13 115.23 42.13 115.47 42.13C115.71 42.13 115.92 42.07 116.1 41.95C116.3 41.83 116.41 41.64 116.43 41.38C116.47 41.02 116.48 40.66 116.46 40.3C116.46 39.92 116.46 39.55 116.46 39.19C116.46 38.47 116.46 37.75 116.46 37.03C116.46 36.29 116.46 35.56 116.46 34.84V29.59C116.46 28.41 116.45 27.24 116.43 26.08C116.43 24.9 116.43 23.73 116.43 22.57C116.43 22.21 116.25 22 115.89 21.94C115.55 21.86 115.25 21.82 114.99 21.82C114.81 21.82 114.63 21.83 114.45 21.85C114.27 21.85 114.1 21.85 113.94 21.85C113.8 21.85 113.72 21.79 113.7 21.67C113.7 21.53 113.7 21.42 113.7 21.34C113.7 21.26 113.72 21.19 113.76 21.13C113.8 21.05 113.86 21.01 113.94 21.01C114.6 21.01 115.26 21.03 115.92 21.07C116.58 21.11 117.25 21.13 117.93 21.13C118.97 21.13 120.01 21.11 121.05 21.07C122.09 21.03 123.13 21.01 124.17 21.01C125.01 21.01 125.85 21.1 126.69 21.28C127.55 21.46 128.33 21.76 129.03 22.18C129.75 22.6 130.32 23.15 130.74 23.83C131.18 24.51 131.4 25.35 131.4 26.35ZM142.501 39.49C142.421 38.59 142.371 37.69 142.351 36.79C142.351 35.87 142.341 34.95 142.321 34.03H141.901C141.281 34.03 140.591 34.13 139.831 34.33C139.091 34.51 138.381 34.79 137.701 35.17C137.021 35.55 136.461 36.03 136.021 36.61C135.601 37.17 135.391 37.82 135.391 38.56C135.391 39.52 135.661 40.25 136.201 40.75C136.741 41.23 137.471 41.47 138.391 41.47C138.831 41.47 139.311 41.37 139.831 41.17C140.351 40.95 140.851 40.69 141.331 40.39C141.811 40.09 142.201 39.79 142.501 39.49ZM147.751 41.41C147.751 41.49 147.741 41.55 147.721 41.59C147.521 42.03 147.181 42.37 146.701 42.61C146.241 42.83 145.781 42.94 145.321 42.94C144.481 42.94 143.871 42.7 143.491 42.22C143.131 41.72 142.841 41.11 142.621 40.39C141.861 41.09 141.021 41.68 140.101 42.16C139.181 42.62 138.191 42.85 137.131 42.85C136.391 42.85 135.691 42.71 135.031 42.43C134.391 42.13 133.871 41.7 133.471 41.14C133.071 40.58 132.871 39.9 132.871 39.1C132.871 38.26 133.081 37.54 133.501 36.94C133.941 36.32 134.491 35.8 135.151 35.38C135.831 34.94 136.551 34.59 137.311 34.33C138.091 34.05 138.821 33.84 139.501 33.7C139.961 33.6 140.431 33.51 140.911 33.43C141.391 33.35 141.861 33.27 142.321 33.19C142.321 32.63 142.291 31.98 142.231 31.24C142.191 30.5 142.041 29.89 141.781 29.41C141.521 28.95 141.171 28.54 140.731 28.18C140.291 27.82 139.801 27.64 139.261 27.64C138.341 27.64 137.621 27.88 137.101 28.36C136.581 28.84 136.211 29.52 135.991 30.4C135.971 30.5 135.951 30.61 135.931 30.73C135.931 30.83 135.921 30.93 135.901 31.03C135.881 31.15 135.801 31.26 135.661 31.36C135.541 31.44 135.411 31.48 135.271 31.48C134.891 31.48 134.541 31.39 134.221 31.21C133.921 31.03 133.771 30.73 133.771 30.31C133.771 30.07 133.811 29.86 133.891 29.68C134.151 29.06 134.571 28.55 135.151 28.15C135.731 27.73 136.371 27.41 137.071 27.19C137.791 26.97 138.461 26.86 139.081 26.86C140.161 26.86 141.141 27.06 142.021 27.46C142.901 27.86 143.601 28.45 144.121 29.23C144.661 29.99 144.931 30.95 144.931 32.11C144.931 33.41 144.921 34.72 144.901 36.04C144.901 37.36 144.941 38.68 145.021 40C145.041 40.44 145.131 40.83 145.291 41.17C145.451 41.49 145.781 41.65 146.281 41.65C146.541 41.65 146.811 41.59 147.091 41.47C147.391 41.33 147.581 41.26 147.661 41.26C147.721 41.26 147.751 41.31 147.751 41.41ZM157.409 42.61C157.409 42.71 157.379 42.81 157.319 42.91C157.279 42.99 157.199 43.03 157.079 43.03C156.459 43.03 155.829 43.02 155.189 43C154.549 42.96 153.909 42.94 153.269 42.94H152.219C151.799 42.94 151.379 42.96 150.959 43C150.539 43.02 150.119 43.03 149.699 43.03C149.619 43.03 149.559 43 149.519 42.94C149.499 42.86 149.489 42.79 149.489 42.73C149.489 42.67 149.489 42.61 149.489 42.55C149.489 42.49 149.499 42.43 149.519 42.37C149.559 42.29 149.669 42.25 149.849 42.25C150.049 42.23 150.249 42.23 150.449 42.25C150.669 42.25 150.809 42.25 150.869 42.25C151.149 42.25 151.399 42.19 151.619 42.07C151.839 41.93 151.949 41.7 151.949 41.38C151.949 39.84 151.959 38.31 151.979 36.79C151.999 35.25 152.009 33.72 152.009 32.2C152.009 30.64 151.999 29.08 151.979 27.52C151.979 25.94 151.979 24.37 151.979 22.81C151.979 22.67 151.969 22.52 151.949 22.36C151.929 22.18 151.869 22.04 151.769 21.94C151.689 21.84 151.609 21.79 151.529 21.79C151.449 21.77 151.349 21.76 151.229 21.76C150.869 21.76 150.509 21.82 150.149 21.94C149.809 22.06 149.469 22.12 149.129 22.12C148.909 22.12 148.799 21.99 148.799 21.73C148.799 21.57 148.919 21.46 149.159 21.4C149.419 21.34 149.619 21.3 149.759 21.28C150.459 21.12 151.219 20.94 152.039 20.74C152.859 20.54 153.599 20.31 154.259 20.05C154.299 20.05 154.339 20.04 154.379 20.02C154.419 20 154.449 19.99 154.469 19.99C154.589 19.99 154.659 20.03 154.679 20.11C154.719 20.19 154.739 20.28 154.739 20.38C154.739 20.94 154.729 21.5 154.709 22.06C154.709 22.6 154.709 23.15 154.709 23.71V32.11C154.709 33.65 154.719 35.2 154.739 36.76C154.759 38.3 154.769 39.84 154.769 41.38C154.769 41.7 154.899 41.93 155.159 42.07C155.439 42.19 155.709 42.25 155.969 42.25C156.189 42.25 156.399 42.24 156.599 42.22C156.799 42.2 156.999 42.19 157.199 42.19C157.299 42.19 157.359 42.25 157.379 42.37C157.399 42.47 157.409 42.55 157.409 42.61ZM169.19 39.49C169.11 38.59 169.06 37.69 169.04 36.79C169.04 35.87 169.03 34.95 169.01 34.03H168.59C167.97 34.03 167.28 34.13 166.52 34.33C165.78 34.51 165.07 34.79 164.39 35.17C163.71 35.55 163.15 36.03 162.71 36.61C162.29 37.17 162.08 37.82 162.08 38.56C162.08 39.52 162.35 40.25 162.89 40.75C163.43 41.23 164.16 41.47 165.08 41.47C165.52 41.47 166 41.37 166.52 41.17C167.04 40.95 167.54 40.69 168.02 40.39C168.5 40.09 168.89 39.79 169.19 39.49ZM174.44 41.41C174.44 41.49 174.43 41.55 174.41 41.59C174.21 42.03 173.87 42.37 173.39 42.61C172.93 42.83 172.47 42.94 172.01 42.94C171.17 42.94 170.56 42.7 170.18 42.22C169.82 41.72 169.53 41.11 169.31 40.39C168.55 41.09 167.71 41.68 166.79 42.16C165.87 42.62 164.88 42.85 163.82 42.85C163.08 42.85 162.38 42.71 161.72 42.43C161.08 42.13 160.56 41.7 160.16 41.14C159.76 40.58 159.56 39.9 159.56 39.1C159.56 38.26 159.77 37.54 160.19 36.94C160.63 36.32 161.18 35.8 161.84 35.38C162.52 34.94 163.24 34.59 164 34.33C164.78 34.05 165.51 33.84 166.19 33.7C166.65 33.6 167.12 33.51 167.6 33.43C168.08 33.35 168.55 33.27 169.01 33.19C169.01 32.63 168.98 31.98 168.92 31.24C168.88 30.5 168.73 29.89 168.47 29.41C168.21 28.95 167.86 28.54 167.42 28.18C166.98 27.82 166.49 27.64 165.95 27.64C165.03 27.64 164.31 27.88 163.79 28.36C163.27 28.84 162.9 29.52 162.68 30.4C162.66 30.5 162.64 30.61 162.62 30.73C162.62 30.83 162.61 30.93 162.59 31.03C162.57 31.15 162.49 31.26 162.35 31.36C162.23 31.44 162.1 31.48 161.96 31.48C161.58 31.48 161.23 31.39 160.91 31.21C160.61 31.03 160.46 30.73 160.46 30.31C160.46 30.07 160.5 29.86 160.58 29.68C160.84 29.06 161.26 28.55 161.84 28.15C162.42 27.73 163.06 27.41 163.76 27.19C164.48 26.97 165.15 26.86 165.77 26.86C166.85 26.86 167.83 27.06 168.71 27.46C169.59 27.86 170.29 28.45 170.81 29.23C171.35 29.99 171.62 30.95 171.62 32.11C171.62 33.41 171.61 34.72 171.59 36.04C171.59 37.36 171.63 38.68 171.71 40C171.73 40.44 171.82 40.83 171.98 41.17C172.14 41.49 172.47 41.65 172.97 41.65C173.23 41.65 173.5 41.59 173.78 41.47C174.08 41.33 174.27 41.26 174.35 41.26C174.41 41.26 174.44 41.31 174.44 41.41ZM185.568 41.62C185.568 41.8 185.428 41.98 185.148 42.16C184.888 42.34 184.568 42.5 184.188 42.64C183.808 42.78 183.438 42.89 183.078 42.97C182.738 43.05 182.488 43.09 182.328 43.09C181.288 43.09 180.478 42.96 179.898 42.7C179.338 42.44 178.938 42.01 178.698 41.41C178.478 40.81 178.368 40 178.368 38.98C178.368 37.32 178.368 35.66 178.368 34C178.388 32.32 178.408 30.65 178.428 28.99H176.268C176.128 28.99 176.008 29.03 175.908 29.11C175.828 29.17 175.738 29.2 175.638 29.2C175.538 29.2 175.488 29.13 175.488 28.99C175.488 28.91 175.538 28.75 175.638 28.51C175.758 28.27 175.838 28.11 175.878 28.03C175.938 28.05 176.028 28.06 176.148 28.06H178.488L178.518 24.25C178.978 23.95 179.398 23.62 179.778 23.26C180.158 22.88 180.538 22.5 180.918 22.12C180.958 22.08 180.998 22.05 181.038 22.03C181.078 21.99 181.118 21.97 181.158 21.97C181.338 21.97 181.428 22.04 181.428 22.18L181.248 28.03C181.888 28.03 182.518 28.02 183.138 28C183.778 27.98 184.408 27.97 185.028 27.97C185.288 27.97 185.418 28.12 185.418 28.42C185.418 28.8 185.248 28.99 184.908 28.99H181.248C181.248 30.51 181.238 32.04 181.218 33.58C181.218 35.1 181.218 36.63 181.218 38.17V40.48C181.218 40.98 181.428 41.33 181.848 41.53C182.268 41.71 182.678 41.8 183.078 41.8C183.638 41.8 184.188 41.71 184.728 41.53C184.788 41.49 184.878 41.45 184.998 41.41C185.118 41.37 185.208 41.35 185.268 41.35C185.468 41.35 185.568 41.44 185.568 41.62ZM198.05 32.47C198.03 31.65 197.96 30.87 197.84 30.13C197.72 29.37 197.43 28.75 196.97 28.27C196.51 27.77 195.76 27.52 194.72 27.52C193.78 27.52 193.01 27.78 192.41 28.3C191.83 28.8 191.38 29.44 191.06 30.22C190.74 30.98 190.5 31.76 190.34 32.56C190.84 32.58 191.33 32.6 191.81 32.62C192.29 32.62 192.77 32.62 193.25 32.62C194.05 32.62 194.85 32.61 195.65 32.59C196.45 32.55 197.25 32.51 198.05 32.47ZM201.5 39.34C201.5 39.44 201.48 39.5 201.44 39.52C201.38 39.72 201.23 39.96 200.99 40.24C200.77 40.52 200.52 40.79 200.24 41.05C199.96 41.29 199.73 41.47 199.55 41.59C198.89 42.05 198.14 42.42 197.3 42.7C196.48 42.98 195.66 43.12 194.84 43.12C194.16 43.12 193.4 43.01 192.56 42.79C191.74 42.57 191.04 42.27 190.46 41.89C189.34 41.15 188.52 40.18 188 38.98C187.48 37.78 187.22 36.53 187.22 35.23C187.22 33.75 187.51 32.38 188.09 31.12C188.67 29.86 189.6 28.84 190.88 28.06C191.46 27.72 192.11 27.44 192.83 27.22C193.55 26.98 194.24 26.86 194.9 26.86C196.08 26.86 197.12 27.1 198.02 27.58C198.92 28.06 199.62 28.74 200.12 29.62C200.64 30.48 200.9 31.51 200.9 32.71C200.9 33.05 200.82 33.27 200.66 33.37C200.52 33.47 200.3 33.52 200 33.52C199.6 33.52 199.2 33.51 198.8 33.49C198.4 33.47 198 33.45 197.6 33.43C197.04 33.39 196.48 33.37 195.92 33.37C195.38 33.37 194.83 33.37 194.27 33.37C193.59 33.37 192.91 33.37 192.23 33.37C191.55 33.37 190.87 33.39 190.19 33.43C190.17 33.75 190.15 34.06 190.13 34.36C190.11 34.66 190.1 34.97 190.1 35.29C190.1 36.03 190.19 36.8 190.37 37.6C190.55 38.38 190.84 39.11 191.24 39.79C191.64 40.45 192.15 40.99 192.77 41.41C193.39 41.81 194.14 42.01 195.02 42.01C195.92 42.01 196.78 41.87 197.6 41.59C198.42 41.31 199.17 40.86 199.85 40.24C200.03 40.06 200.19 39.87 200.33 39.67C200.49 39.45 200.66 39.26 200.84 39.1C200.94 39 201.05 38.95 201.17 38.95C201.27 38.95 201.35 38.99 201.41 39.07C201.47 39.15 201.5 39.24 201.5 39.34Z" fill="#E4C590"/>
</svg>
